<svg xmlns="http://www.w3.org/2000/svg" viewBox="0 0 207.99 167.25"><defs><style>.a{fill:#4d4d4d;}</style></defs><title>Asset 24</title><path class="a" d="M193,68.63H51.21l43-43A15,15,0,0,0,73,4.39L4.39,73a12.51,12.51,0,0,0-.92,1l-.27.35c-.19.24-.38.49-.55.74l-.27.4c-.22.33-.42.68-.61,1L1.56,77c-.13.26-.25.53-.37.8s-.14.34-.2.51-.18.5-.26.75-.11.32-.16.49c-.11.39-.21.79-.29,1.19,0,.1,0,.19-.05.29-.06.33-.1.67-.14,1,0,.14,0,.28,0,.43,0,.31,0,.62,0,.94,0,.12,0,.25,0,.38,0,.43,0,.86.06,1.3v0q.06.62.18,1.23c0,.15.06.3.09.45s.12.54.2.82.09.34.15.51.17.52.27.78.11.31.17.46v0a12.11,12.11,0,0,0,.51,1.1c.08.15.16.3.25.45s.28.49.43.72.18.29.27.42c.2.3.42.59.64.87l.15.2c.29.35.6.69.92,1a.6.6,0,0,1,.08.08L73,162.86a15,15,0,0,0,21.22-21.21l-43-43H193a15,15,0,0,0,0-30Z"/></svg>