<svg xmlns="http://www.w3.org/2000/svg" xmlns:xlink="http://www.w3.org/1999/xlink" viewBox="0 0 351 577"><defs><style>.a,.b,.e,.g{fill:none;}.b{clip-rule:evenodd;}.c{clip-path:url(#a);}.d{clip-path:url(#b);}.e,.g{stroke:#000;stroke-miterlimit:10;}.e{stroke-width:40px;}.e,.g,.i{opacity:0.03;}.f{clip-path:url(#c);}.g{stroke-width:20px;}.h{clip-path:url(#e);}.j{clip-path:url(#g);}.k{clip-path:url(#i);}</style><clipPath id="a" transform="translate(5 5)"><circle class="a" cx="226" cy="393" r="100"/></clipPath><clipPath id="b" transform="translate(5 5)"><rect class="a" x="-50" y="-97" width="414" height="736"/></clipPath><clipPath id="c" transform="translate(5 5)"><circle class="a" cx="63" cy="148" r="25"/></clipPath><clipPath id="e" transform="translate(5 5)"><rect class="a" x="38" width="100" height="50"/></clipPath><clipPath id="g" transform="translate(5 5)"><rect class="a" y="492" width="100" height="75"/></clipPath><clipPath id="i" transform="translate(5 5)"><path class="b" d="M260,113a10,10,0,0,1-10,10H203a10,10,0,0,1-10-10V103h67Z"/></clipPath></defs><title>bg</title><g class="c"><g class="d"><circle class="e" cx="231" cy="398" r="100"/></g></g><g class="f"><g class="d"><circle class="g" cx="68" cy="153" r="25"/></g></g><g class="h"><g class="d"><rect class="i" x="38" width="110" height="60"/></g></g><g class="j"><g class="d"><rect class="i" y="492" width="110" height="85"/></g></g><g class="k"><g class="d"><rect class="i" x="193" y="103" width="77" height="30"/></g></g></svg>