<?xml version="1.0" encoding="utf-8"?>
<!-- Generator: Adobe Illustrator 22.1.0, SVG Export Plug-In . SVG Version: 6.00 Build 0)  -->
<svg version="1.1" id="Layer_1" xmlns="http://www.w3.org/2000/svg" xmlns:xlink="http://www.w3.org/1999/xlink" x="0px" y="0px"
	 viewBox="0 0 303 330.2" style="enable-background:new 0 0 303 330.2;" xml:space="preserve">
<style type="text/css">
	.st0{fill:#4D4D4D;}
</style>
<g>
	<path class="st0" d="M288,27.2h-57.7V15c0-8.3-6.7-15-15-15s-15,6.7-15,15v12.2h-97.7V15c0-8.3-6.7-15-15-15s-15,6.7-15,15v12.2H15
		c-8.3,0-15,6.7-15,15v78.5v194.5c0,8.3,6.7,15,15,15h273c8.3,0,15-6.7,15-15V120.7V42.2C303,33.9,296.3,27.2,288,27.2z M30,57.2
		h42.7v12.2c0,8.3,6.7,15,15,15s15-6.7,15-15V57.2h97.7v12.2c0,8.3,6.7,15,15,15s15-6.7,15-15V57.2H273v48.5H30V57.2z M30,300.2
		V135.7h243v164.5H30z"/>
	<path class="st0" d="M157.6,165.9h-0.3c-3,0-6.1,0.7-10.1,1.8l-13.9,4.1c-4.4,1.3-7.2,4.9-7.2,9.3c0,5.1,4.4,9.3,9.4,9.3
		c1.1,0,2.7-0.3,3.8-0.6l7.6-2v68.2c0,5.9,4.8,10.7,10.7,10.7c5.9,0,10.7-4.8,10.7-10.7v-79.5C168.3,170.7,163.5,165.9,157.6,165.9z
		"/>
</g>
</svg>
