<svg xmlns="http://www.w3.org/2000/svg" xmlns:xlink="http://www.w3.org/1999/xlink" viewBox="0 0 417.79 398"><defs><style>.a{fill:url(#a);}.b{fill:#4d4d4d;}</style><linearGradient id="a" x1="15" y1="228.79" x2="340" y2="228.79" gradientUnits="userSpaceOnUse"><stop offset="0" stop-color="#4fc1e9"/><stop offset="1" stop-color="#7adca0"/></linearGradient></defs><title>Asset 27</title><path class="a" d="M257.59,204.2a89.54,89.54,0,1,0-160.18,0A89.54,89.54,0,1,0,177.5,345.38,89.54,89.54,0,1,0,257.59,204.2Z"/><path class="b" d="M325.28,157.9a121.84,121.84,0,1,0-232.78,0A121.83,121.83,0,1,0,208.89,361.31,121.81,121.81,0,1,0,325.28,157.9ZM208.89,305.44a92,92,0,0,1,0-58.55,91.85,91.85,0,0,1,0,58.55Zm0-275.44a91.85,91.85,0,0,1,85.9,124.34A121.47,121.47,0,0,0,208.89,191,121.46,121.46,0,0,0,123,154.34,91.82,91.82,0,0,1,208.89,30Zm64.53,157.12a91.82,91.82,0,0,1-42,23.76A91.82,91.82,0,0,1,273.42,187.12Zm-87.05,23.76a91.77,91.77,0,0,1-42-23.76A91.88,91.88,0,0,1,186.37,210.88ZM121.84,368a91.84,91.84,0,0,1-16.59-182.17,122.29,122.29,0,0,0,74.31,54.27,121.78,121.78,0,0,0,10.92,97A91.64,91.64,0,0,1,121.84,368ZM296,368a91.61,91.61,0,0,1-68.64-30.89,121.78,121.78,0,0,0,10.92-97,122.3,122.3,0,0,0,74.3-54.27A91.84,91.84,0,0,1,296,368Z"/></svg>