<?xml version="1.0" encoding="utf-8"?>
<!-- Generator: Adobe Illustrator 22.1.0, SVG Export Plug-In . SVG Version: 6.00 Build 0)  -->
<svg version="1.1" id="Layer_1" xmlns="http://www.w3.org/2000/svg" xmlns:xlink="http://www.w3.org/1999/xlink" x="0px" y="0px"
	 viewBox="0 0 110 110" style="enable-background:new 0 0 110 110;" xml:space="preserve">
<style type="text/css">
	.st0{fill:#4D4D4D;}
</style>
<path class="st0" d="M76.2,55l29.4-29.3c5.9-5.9,5.9-15.3,0-21.2c-5.9-5.9-15.3-5.9-21.2,0L55,33.8L25.7,4.4
	c-5.9-5.9-15.3-5.9-21.2,0c-5.9,5.9-5.9,15.3,0,21.2L33.8,55L4.4,84.3c-5.9,5.8-5.9,15.3,0,21.2c2.9,2.9,6.8,4.4,10.6,4.4
	c3.8,0,7.7-1.5,10.6-4.4L55,76.2l29.3,29.4c2.9,2.9,6.8,4.4,10.6,4.4c3.8,0,7.7-1.5,10.6-4.4c5.9-5.8,5.9-15.3,0-21.2L76.2,55z"/>
</svg>
