<svg xmlns="http://www.w3.org/2000/svg" xmlns:xlink="http://www.w3.org/1999/xlink" viewBox="0 0 228.22 344.85"><defs><style>.a{fill:url(#a);}.b{fill:#4d4d4d;}</style><linearGradient id="a" x1="15" y1="199.59" x2="124.71" y2="199.59" gradientUnits="userSpaceOnUse"><stop offset="0" stop-color="#4fc1e9"/><stop offset="1" stop-color="#7adca0"/></linearGradient></defs><title>Asset 29</title><path class="a" d="M92.35,225V91.73a22.41,22.41,0,0,0-44.81,0V224.88a54.85,54.85,0,1,0,44.81.08Z"/><path class="b" d="M81.11,344.85a81.11,81.11,0,0,1-41.9-150.56V42.9a42,42,0,0,1,84,0V194.43a81.1,81.1,0,0,1-42.1,150.42Zm.1-314a12,12,0,0,0-12,12V213.08l-8.88,4a51.09,51.09,0,1,0,41.73.07l-8.85-4V42.9A12,12,0,0,0,81.21,30.9Z"/><path class="b" d="M185.75,85a42.48,42.48,0,1,1,42.47-42.48A42.53,42.53,0,0,1,185.75,85Zm0-54.95a12.48,12.48,0,1,0,12.47,12.47A12.49,12.49,0,0,0,185.75,30Z"/></svg>