<svg xmlns="http://www.w3.org/2000/svg" viewBox="0 0 179.5 142.2"><defs><style>.a{fill:#4d4d4d;}</style></defs><title>hamburger</title><path class="a" d="M124.5,86.2h0L15,86a15,15,0,0,1,0-30h0l109.5.2a15,15,0,0,1,0,30Z"/><path class="a" d="M164.5,86.2a15,15,0,0,1-15-15V71a15,15,0,0,1,30,0v.2A15,15,0,0,1,164.5,86.2Z"/><path class="a" d="M164.5,30.2h0L55,30A15,15,0,0,1,55,0h0l109.5.2a15,15,0,0,1,0,30Z"/><path class="a" d="M15,30.2a15,15,0,0,1-15-15V15a15,15,0,0,1,30,0v.2A15,15,0,0,1,15,30.2Z"/><path class="a" d="M164.5,142.2h0L55,142a15,15,0,0,1,0-30h0l109.5.2a15,15,0,0,1,0,30Z"/><path class="a" d="M15,142.2a15,15,0,0,1-15-15V127a15,15,0,0,1,30,0v.2A15,15,0,0,1,15,142.2Z"/></svg>