<svg xmlns="http://www.w3.org/2000/svg" xmlns:xlink="http://www.w3.org/1999/xlink" viewBox="0 0 389.94 362.35"><defs><style>.a{fill:url(#a);}.b{fill:none;stroke:#4d4d4d;stroke-linecap:round;stroke-linejoin:round;stroke-width:30px;}</style><linearGradient id="a" x1="15" y1="200.23" x2="333.65" y2="200.23" gradientUnits="userSpaceOnUse"><stop offset="0" stop-color="#4fc1e9"/><stop offset="1" stop-color="#7adca0"/></linearGradient></defs><title>Asset 36</title><path class="a" d="M174.05,53.12H240l73.48,20.36c33.64,30.1,15,249.66,15,249.66H272.15v24.21l-97.31-.27-98.34.27V323.14H20.12S1.53,103.58,35.17,73.48l76.46-20.36h62.42"/><path class="b" d="M195.55,347.35H305.47V110.06L305.15,178V320h64s21-248-17-282l-83-23-74,105"/><path class="b" d="M194.39,347.35H84.47V110.06L84.79,178V320h-64s-21-248,17-282l86.36-23,71,105V347"/><line class="b" x1="124.15" y1="15" x2="269.15" y2="15"/></svg>