<?xml version="1.0" encoding="utf-8"?>
<!-- Generator: Adobe Illustrator 22.1.0, SVG Export Plug-In . SVG Version: 6.00 Build 0)  -->
<svg version="1.1" id="Layer_1" xmlns="http://www.w3.org/2000/svg" xmlns:xlink="http://www.w3.org/1999/xlink" x="0px" y="0px"
	 viewBox="0 0 598.5 301.9" style="enable-background:new 0 0 598.5 301.9;" xml:space="preserve">
<style type="text/css">
	.st0{fill:#4D4D4D;}
</style>
<g>
	<path class="st0" d="M583.5,0H15C6.7,0,0,6.7,0,15v53.3c0,8.3,6.7,15,15,15h10.3l66,208.1c2,6.2,7.8,10.5,14.3,10.5h386.8
		c6.5,0,12.3-4.2,14.3-10.5l66-208.1h10.9c8.3,0,15-6.7,15-15V15C598.5,6.7,591.8,0,583.5,0z M30,30h538.5v23.3h-6.9H36.3H30V30z
		 M481.3,271.9H116.5L56.8,83.3h484.3L481.3,271.9z"/>
	<path class="st0" d="M298.9,244.2c6.9,0,12.5-5.6,12.5-12.5V123.5c0-6.9-5.6-12.5-12.5-12.5s-12.5,5.6-12.5,12.5v108.2
		C286.4,238.6,292,244.2,298.9,244.2z"/>
	<path class="st0" d="M407.2,244.2c6.9,0,12.5-5.6,12.5-12.5V123.5c0-6.9-5.6-12.5-12.5-12.5s-12.5,5.6-12.5,12.5v108.2
		C394.7,238.6,400.3,244.2,407.2,244.2z"/>
	<path class="st0" d="M198.8,244.2c6.9,0,12.5-5.6,12.5-12.5V123.5c0-6.9-5.6-12.5-12.5-12.5s-12.5,5.6-12.5,12.5v108.2
		C186.3,238.6,191.9,244.2,198.8,244.2z"/>
</g>
</svg>
