<svg xmlns="http://www.w3.org/2000/svg" xmlns:xlink="http://www.w3.org/1999/xlink" viewBox="0 0 532.51 270.34"><defs><style>.a{fill:none;}.b{clip-path:url(#a);}.c{fill:#4fc1e9;}.d{fill:#50c1e8;}.e{fill:#50c2e7;}.f{fill:#51c2e6;}.g{fill:#51c3e5;}.h{fill:#52c3e4;}.i{fill:#53c3e3;}.j{fill:#53c4e2;}.k{fill:#54c4e1;}.l{fill:#54c4e0;}.m{fill:#55c5df;}.n{fill:#56c5de;}.o{fill:#56c6dd;}.p{fill:#57c6dc;}.q{fill:#57c6db;}.r{fill:#58c7da;}.s{fill:#59c7d9;}.t{fill:#59c7d8;}.u{fill:#5ac8d7;}.v{fill:#5ac8d6;}.w{fill:#5bc9d5;}.x{fill:#5cc9d4;}.y{fill:#5cc9d3;}.z{fill:#5dcad2;}.aa{fill:#5dcad1;}.ab{fill:#5ecad0;}.ac{fill:#5fcbcf;}.ad{fill:#5fcbce;}.ae{fill:#60cccd;}.af{fill:#60cccc;}.ag{fill:#61cccb;}.ah{fill:#62cdca;}.ai{fill:#62cdc9;}.aj{fill:#63cdc8;}.ak{fill:#63cec7;}.al{fill:#64cec6;}.am{fill:#65cfc5;}.an{fill:#65cfc3;}.ao{fill:#66cfc2;}.ap{fill:#66d0c1;}.aq{fill:#67d0c0;}.ar{fill:#67d0bf;}.as{fill:#68d1be;}.at{fill:#69d1bd;}.au{fill:#69d2bc;}.av{fill:#6ad2bb;}.aw{fill:#6ad2ba;}.ax{fill:#6bd3b9;}.ay{fill:#6cd3b8;}.az{fill:#6cd3b7;}.ba{fill:#6dd4b6;}.bb{fill:#6dd4b5;}.bc{fill:#6ed5b4;}.bd{fill:#6fd5b3;}.be{fill:#6fd5b2;}.bf{fill:#70d6b1;}.bg{fill:#70d6b0;}.bh{fill:#71d6af;}.bi{fill:#72d7ae;}.bj{fill:#72d7ad;}.bk{fill:#73d8ac;}.bl{fill:#73d8ab;}.bm{fill:#74d8aa;}.bn{fill:#75d9a9;}.bo{fill:#75d9a8;}.bp{fill:#76d9a7;}.bq{fill:#76daa6;}.br{fill:#77daa5;}.bs{fill:#78dba4;}.bt{fill:#78dba3;}.bu{fill:#79dba2;}.bv{fill:#79dca1;}.bw{fill:#7adca0;}.bx{fill:#4d4d4d;}</style><clipPath id="a"><polygon class="a" points="40.99 96.88 91.2 255.34 371.56 255.34 421.77 96.88 40.99 96.88"/></clipPath></defs><title>laundry</title><g class="b"><path class="c" d="M41,96.88Z"/><path class="c" d="M46.57,96.88,41,108.39Z"/><polygon class="d" points="52.15 96.88 40.99 119.91 40.99 108.39 46.57 96.88 52.15 96.88"/><polygon class="e" points="57.73 96.88 40.99 131.42 40.99 119.91 52.15 96.88 57.73 96.88"/><polygon class="f" points="63.31 96.88 40.99 142.93 40.99 131.42 57.73 96.88 63.31 96.88"/><polygon class="g" points="68.89 96.88 40.99 154.44 40.99 142.93 63.31 96.88 68.89 96.88"/><polygon class="h" points="74.47 96.88 40.99 165.96 40.99 154.44 68.89 96.88 74.47 96.88"/><polygon class="i" points="80.05 96.88 40.99 177.47 40.99 165.96 74.47 96.88 80.05 96.88"/><polygon class="j" points="85.63 96.88 40.99 188.98 40.99 177.47 80.05 96.88 85.63 96.88"/><polygon class="k" points="91.21 96.88 40.99 200.49 40.99 188.98 85.63 96.88 91.21 96.88"/><polygon class="l" points="96.79 96.88 40.99 212 40.99 200.49 91.21 96.88 96.79 96.88"/><polygon class="m" points="102.37 96.88 40.99 223.52 40.99 212 96.79 96.88 102.37 96.88"/><polygon class="n" points="107.95 96.88 41.7 233.56 40.99 233.22 40.99 223.52 102.37 96.88 107.95 96.88"/><polygon class="o" points="113.53 96.88 46.22 235.75 41.7 233.56 107.95 96.88 113.53 96.88"/><polygon class="p" points="119.11 96.88 50.73 237.94 46.22 235.75 113.53 96.88 119.11 96.88"/><polygon class="q" points="124.69 96.88 55.25 240.13 50.73 237.94 119.11 96.88 124.69 96.88"/><polygon class="r" points="130.28 96.88 59.77 242.32 55.25 240.13 124.69 96.88 130.28 96.88"/><polygon class="s" points="135.85 96.88 64.29 244.51 59.77 242.32 130.28 96.88 135.85 96.88"/><polygon class="t" points="141.44 96.88 68.81 246.71 64.29 244.51 135.85 96.88 141.44 96.88"/><polygon class="u" points="147.02 96.88 73.33 248.9 68.81 246.71 141.44 96.88 147.02 96.88"/><polygon class="v" points="152.6 96.88 77.85 251.09 73.33 248.9 147.02 96.88 152.6 96.88"/><polygon class="w" points="158.18 96.88 82.37 253.28 77.85 251.09 152.6 96.88 158.18 96.88"/><polygon class="x" points="163.76 96.88 86.95 255.34 86.62 255.34 82.37 253.28 158.18 96.88 163.76 96.88"/><polygon class="y" points="169.34 96.88 92.53 255.34 86.95 255.34 163.76 96.88 169.34 96.88"/><polygon class="z" points="174.92 96.88 98.11 255.34 92.53 255.34 169.34 96.88 174.92 96.88"/><polygon class="aa" points="180.5 96.88 103.69 255.34 98.11 255.34 174.92 96.88 180.5 96.88"/><polygon class="ab" points="186.08 96.88 109.27 255.34 103.69 255.34 180.5 96.88 186.08 96.88"/><polygon class="ac" points="191.66 96.88 114.85 255.34 109.27 255.34 186.08 96.88 191.66 96.88"/><polygon class="ad" points="197.24 96.88 120.43 255.34 114.85 255.34 191.66 96.88 197.24 96.88"/><polygon class="ae" points="202.82 96.88 126.01 255.34 120.43 255.34 197.24 96.88 202.82 96.88"/><polygon class="af" points="208.4 96.88 131.59 255.34 126.01 255.34 202.82 96.88 208.4 96.88"/><polygon class="ag" points="213.98 96.88 137.17 255.34 131.59 255.34 208.4 96.88 213.98 96.88"/><polygon class="ah" points="219.56 96.88 142.75 255.34 137.17 255.34 213.98 96.88 219.56 96.88"/><polygon class="ai" points="225.14 96.88 148.34 255.34 142.75 255.34 219.56 96.88 225.14 96.88"/><polygon class="aj" points="230.72 96.88 153.91 255.34 148.34 255.34 225.14 96.88 230.72 96.88"/><polygon class="ak" points="236.31 96.88 159.5 255.34 153.91 255.34 230.72 96.88 236.31 96.88"/><polygon class="al" points="241.89 96.88 165.08 255.34 159.5 255.34 236.31 96.88 241.89 96.88"/><polygon class="am" points="247.47 96.88 170.66 255.34 165.08 255.34 241.89 96.88 247.47 96.88"/><polygon class="an" points="253.05 96.88 176.24 255.34 170.66 255.34 247.47 96.88 253.05 96.88"/><polygon class="ao" points="258.63 96.88 181.82 255.34 176.24 255.34 253.05 96.88 258.63 96.88"/><polygon class="ap" points="264.21 96.88 187.4 255.34 181.82 255.34 258.63 96.88 264.21 96.88"/><polygon class="aq" points="269.79 96.88 192.98 255.34 187.4 255.34 264.21 96.88 269.79 96.88"/><polygon class="ar" points="275.37 96.88 198.56 255.34 192.98 255.34 269.79 96.88 275.37 96.88"/><polygon class="as" points="280.95 96.88 204.14 255.34 198.56 255.34 275.37 96.88 280.95 96.88"/><polygon class="at" points="286.53 96.88 209.72 255.34 204.14 255.34 280.95 96.88 286.53 96.88"/><polygon class="au" points="292.11 96.88 215.3 255.34 209.72 255.34 286.53 96.88 292.11 96.88"/><polygon class="av" points="297.69 96.88 220.88 255.34 215.3 255.34 292.11 96.88 297.69 96.88"/><polygon class="aw" points="303.27 96.88 226.46 255.34 220.88 255.34 297.69 96.88 303.27 96.88"/><polygon class="ax" points="308.85 96.88 232.04 255.34 226.46 255.34 303.27 96.88 308.85 96.88"/><polygon class="ay" points="314.43 96.88 237.62 255.34 232.04 255.34 308.85 96.88 314.43 96.88"/><polygon class="az" points="320.01 96.88 243.2 255.34 237.62 255.34 314.43 96.88 320.01 96.88"/><polygon class="ba" points="325.59 96.88 248.78 255.34 243.2 255.34 320.01 96.88 325.59 96.88"/><polygon class="bb" points="331.18 96.88 254.37 255.34 248.78 255.34 325.59 96.88 331.18 96.88"/><polygon class="bc" points="336.75 96.88 259.94 255.34 254.37 255.34 331.18 96.88 336.75 96.88"/><polygon class="bd" points="342.34 96.88 265.53 255.34 259.94 255.34 336.75 96.88 342.34 96.88"/><polygon class="be" points="347.92 96.88 271.11 255.34 265.53 255.34 342.34 96.88 347.92 96.88"/><polygon class="bf" points="353.5 96.88 276.69 255.34 271.11 255.34 347.92 96.88 353.5 96.88"/><polygon class="bg" points="359.08 96.88 282.27 255.34 276.69 255.34 353.5 96.88 359.08 96.88"/><polygon class="bh" points="364.66 96.88 287.85 255.34 282.27 255.34 359.08 96.88 364.66 96.88"/><polygon class="bi" points="370.24 96.88 293.43 255.34 287.85 255.34 364.66 96.88 370.24 96.88"/><polygon class="bj" points="375.82 96.88 299.01 255.34 293.43 255.34 370.24 96.88 375.82 96.88"/><polygon class="bk" points="381.4 96.88 304.59 255.34 299.01 255.34 375.82 96.88 381.4 96.88"/><polygon class="bl" points="386.98 96.88 310.17 255.34 304.59 255.34 381.4 96.88 386.98 96.88"/><polygon class="bm" points="392.56 96.88 315.75 255.34 310.17 255.34 386.98 96.88 392.56 96.88"/><polygon class="bn" points="398.14 96.88 321.33 255.34 315.75 255.34 392.56 96.88 398.14 96.88"/><polygon class="bo" points="403.72 96.88 326.91 255.34 321.33 255.34 398.14 96.88 403.72 96.88"/><polygon class="bp" points="409.3 96.88 332.49 255.34 326.91 255.34 403.72 96.88 409.3 96.88"/><polygon class="bq" points="414.88 96.88 338.07 255.34 332.49 255.34 409.3 96.88 414.88 96.88"/><polygon class="br" points="420.46 96.88 343.65 255.34 338.07 255.34 414.88 96.88 420.46 96.88"/><polygon class="bs" points="421.77 105.69 349.23 255.34 343.65 255.34 420.46 96.88 421.77 96.88 421.77 105.69"/><polygon class="bt" points="421.77 117.2 354.81 255.34 349.23 255.34 421.77 105.69 421.77 117.2"/><polygon class="bu" points="421.77 128.72 360.39 255.34 354.81 255.34 421.77 117.2 421.77 128.72"/><polygon class="bv" points="421.77 140.23 365.98 255.34 360.39 255.34 421.77 128.72 421.77 140.23"/><polygon class="bw" points="421.77 151.74 371.56 255.34 365.98 255.34 421.77 140.23 421.77 151.74"/><polygon class="bw" points="371.56 255.34 421.77 151.74 421.77 255.34 371.56 255.34"/></g><path class="bx" d="M517.51,0H15A15,15,0,0,0,0,15V62.11a15,15,0,0,0,15,15h7.83L80.75,259.87a15,15,0,0,0,14.3,10.47H436.92a15,15,0,0,0,14.29-10.47L509.13,77.11h8.38a15,15,0,0,0,15-15V15A15,15,0,0,0,517.51,0ZM30,30H502.51V47.11H30ZM425.93,240.34H106L54.3,77.11H477.66Z"/><path class="bx" d="M266,219.05a12.5,12.5,0,0,1-12.5-12.5V110.9a12.5,12.5,0,1,1,25,0v95.65A12.5,12.5,0,0,1,266,219.05Z"/><path class="bx" d="M361.64,219.05a12.49,12.49,0,0,1-12.5-12.5V110.9a12.5,12.5,0,1,1,25,0v95.65A12.5,12.5,0,0,1,361.64,219.05Z"/><path class="bx" d="M177.5,219.05a12.5,12.5,0,0,1-12.5-12.5V110.9a12.5,12.5,0,1,1,25,0v95.65A12.5,12.5,0,0,1,177.5,219.05Z"/></svg>