<svg xmlns="http://www.w3.org/2000/svg" viewBox="0 0 308 364.16"><defs><style>.a{fill:#575757;}</style></defs><title>Asset 1</title><path class="a" d="M293,364.16H15a15,15,0,0,1-15-15V15A15,15,0,0,1,15,0H293a15,15,0,0,1,15,15V349.16A15,15,0,0,1,293,364.16Zm-263-30H278V30H30Z"/><path class="a" d="M154,267.08a85,85,0,1,1,85-85A85,85,0,0,1,154,267.08Zm0-140a55,55,0,1,0,55,55,55,55,0,0,0-55-55Z"/><circle class="a" cx="80" cy="50.12" r="10"/><circle class="a" cx="50" cy="50.12" r="10"/><rect class="a" x="208" y="284.12" width="60" height="40"/></svg>