<svg xmlns="http://www.w3.org/2000/svg" xmlns:xlink="http://www.w3.org/1999/xlink" viewBox="0 0 245.86 364"><defs><style>.a{fill:url(#a);}.b{fill:#4d4d4d;}</style><linearGradient id="a" x1="15" y1="203" x2="205" y2="203" gradientUnits="userSpaceOnUse"><stop offset="0" stop-color="#4fc1e9"/><stop offset="1" stop-color="#7adca0"/></linearGradient></defs><title>Asset 37</title><path class="a" d="M205,151c0,75.45-94.61,199-94.61,199S15,226.46,15,151a95,95,0,0,1,190,0Z"/><path class="b" d="M123.37,364a15,15,0,0,1-11.87-5.83C107,352.27,0,212.73,0,122.93a122.93,122.93,0,0,1,245.86,0c0,89.77-106.06,229.29-110.58,235.19A15,15,0,0,1,123.4,364Zm-.44-334A93,93,0,0,0,30,122.93c0,32.36,18,79.92,52.1,137.54,15.44,26.11,31,48.79,41.22,63.14,10.21-14.42,25.69-37.21,41-63.37,33.7-57.5,51.52-105,51.52-137.31A93,93,0,0,0,122.93,30Z"/><path class="b" d="M122.93,183.68a60.75,60.75,0,1,1,60.75-60.75A60.82,60.82,0,0,1,122.93,183.68Zm0-91.5a30.75,30.75,0,1,0,30.75,30.75A30.78,30.78,0,0,0,122.93,92.18Z"/></svg>