<svg xmlns="http://www.w3.org/2000/svg" xmlns:xlink="http://www.w3.org/1999/xlink" viewBox="0 0 287.16 503.35"><defs><style>.a{fill:url(#a);}.b{fill:#4d4d4d;}</style><linearGradient id="a" x1="14" y1="290.64" x2="228.82" y2="290.64" gradientUnits="userSpaceOnUse"><stop offset="0" stop-color="#4fc1e9"/><stop offset="1" stop-color="#7adca0"/></linearGradient></defs><title>Asset 31</title><path class="a" d="M221.92,94.12,59.79,92.93,23.07,93a7,7,0,0,0-7,6.9L14,480.27a7,7,0,0,0,6.9,7l68.76.38,32.15-270.36L151,488l68.76.38a7,7,0,0,0,7-6.9l.14-60.22,2-320.14A7,7,0,0,0,221.92,94.12Z"/><path class="b" d="M287.16,24.85A23.33,23.33,0,0,0,264,1.42L25.91,0h-.09a15.3,15.3,0,0,0-3.2.35A23.28,23.28,0,0,0,2.51,23.28L0,478.6A23.33,23.33,0,0,0,23.18,502l82.3.46h.09a15,15,0,0,0,14.89-13.23L143.33,297,164.07,489.5a15,15,0,0,0,14.84,13.39l82.3.46h.14a23.33,23.33,0,0,0,23.3-23.17l.17-29.09h0ZM192.47,473,159,162.24a15,15,0,0,0-14.83-13.39h-.09a15,15,0,0,0-14.89,13.22L92.25,472.41,30,472.07,32.48,30l224.64,1.34-2.05,374c-.07.4-.14.8-.18,1.19a15.68,15.68,0,0,0,0,3c0,.33.09.67.15,1l-.22,40.43h0l-.13,22.4Z"/></svg>