<svg xmlns="http://www.w3.org/2000/svg" xmlns:xlink="http://www.w3.org/1999/xlink" viewBox="0 0 389.94 401.35"><defs><style>.a{fill:url(#a);}.b{fill:none;stroke:#4d4d4d;stroke-linecap:round;stroke-linejoin:round;stroke-width:30px;}</style><linearGradient id="a" x1="16" y1="219.99" x2="338.65" y2="219.99" gradientUnits="userSpaceOnUse"><stop offset="0" stop-color="#4fc1e9"/><stop offset="1" stop-color="#7adca0"/></linearGradient></defs><title>Asset 35</title><path class="a" d="M177.84,386.36h98.54V173.65l-.28,60.91V361.85h57.37s18.82-222.31-15.24-252.79L270.31,96.38l-13.49-3.9-.43.1L241.22,53.49H113.85L98.67,92.58,36.43,109.06C2.36,139.54,21.19,361.85,21.19,361.85H78.56V234.56l-.29-60.91V386.36l110.43.14"/><path class="b" d="M290.24,60.61l8.46,2.24L352.15,77c38,34,17,282,17,282h-64V217l.32-67.94V386.35H195.55"/><polyline class="b" points="143.15 43 195.15 120 243.62 48.27"/><path class="b" d="M194.39,386.35H84.47V149.06L84.79,217V359h-64s-21-248,17-282l69.44-18.38"/><line class="b" x1="17.15" y1="304" x2="85.15" y2="304"/><line class="b" x1="307.15" y1="304" x2="371.15" y2="304"/><line class="b" x1="195.15" y1="120" x2="195.15" y2="386"/><polygon class="b" points="107.23 58.62 152.15 130 179.18 96.53 124.15 15 107.23 58.62"/><polygon class="b" points="283.18 58.62 238.25 130 211.23 96.53 266.25 15 283.18 58.62"/><line class="b" x1="124.15" y1="15" x2="266.15" y2="15"/></svg>