<svg xmlns="http://www.w3.org/2000/svg" xmlns:xlink="http://www.w3.org/1999/xlink" viewBox="0 0 286.45 365.89"><defs><style>.a{fill:url(#a);}.b{fill:none;}.c{fill:#4d4d4d;}</style><linearGradient id="a" x1="15" y1="204.45" x2="238.61" y2="204.45" gradientUnits="userSpaceOnUse"><stop offset="0" stop-color="#4fc1e9"/><stop offset="1" stop-color="#7adca0"/></linearGradient></defs><title>Asset 33</title><path class="a" d="M238.61,66.44a7.25,7.25,0,0,0-7.2-7.28L23.86,58a7.26,7.26,0,0,0-7.28,7.2L15,350.89h92.51L126.92,187.7l17.59,163.19h92.54Z"/><polygon class="b" points="121.1 350.89 163.53 350.89 143.36 163.74 121.1 350.89"/><path class="c" d="M269.66,365.89H163.53a15,15,0,0,1-14.91-13.39l-6-55.59L136,352.67a15,15,0,0,1-14.89,13.22H15A15,15,0,0,1,0,350.81L1.81,23.18A23.33,23.33,0,0,1,25.11,0h.13l238,1.31a23.34,23.34,0,0,1,23.17,23.44L284.66,351A15,15,0,0,1,269.66,365.89Zm-92.66-30h77.74l1.68-304.61L31.77,30,30.08,335.89h77.7L128.46,162a15,15,0,0,1,14.9-13.23h.08a15,15,0,0,1,14.83,13.39ZM256.45,24.58Z"/></svg>