<svg xmlns="http://www.w3.org/2000/svg" xmlns:xlink="http://www.w3.org/1999/xlink" viewBox="0 0 389.94 368.08"><defs><style>.a{fill:url(#a);}.b{fill:#4d4d4d;}</style><linearGradient id="a" x1="16" y1="200.41" x2="332.15" y2="200.41" gradientUnits="userSpaceOnUse"><stop offset="0" stop-color="#4fc1e9"/><stop offset="1" stop-color="#7adca0"/></linearGradient></defs><title>Asset 32</title><path class="a" d="M312,73.68l-95.86-26c-4.29,15.6-21.45,27.31-42.09,27.63-20.64-.32-37.8-12-42.09-27.63l-95.86,26c-33.57,30.71-15,254.7-15,254.7H77.36v24.7H270.8v-24.7H327S345.59,104.39,312,73.68Z"/><path class="b" d="M385.73,100.35c-4.29-35.71-11.79-57.25-23.57-67.79A15.09,15.09,0,0,0,356,29.23L247.46.5a15,15,0,0,0-18.28,10.44C226,22.15,211.34,30.61,195,30.61h-.06c-16.33,0-31-8.46-34.18-19.67A15,15,0,0,0,142.48.5L34,29.23a15,15,0,0,0-6.16,3.33C16,43.1,8.51,64.64,4.21,100.35,1.15,125.78-.26,158.5,0,197.6c.5,66.06,5.75,128.77,5.8,129.4a15,15,0,0,0,15,13.73H69.47v12.35a15,15,0,0,0,15,15H194.39c.2,0,.39,0,.58,0s.38,0,.58,0H305.47a15,15,0,0,0,15-15V340.73h48.68a15,15,0,0,0,15-13.73c0-.63,5.31-63.34,5.8-129.4C390.2,158.5,388.8,125.78,385.73,100.35Zm-25.82,96.86c-.35,46.66-3.11,91.67-4.66,113.52H320.47V115.79a15,15,0,0,0-15-15h0a15,15,0,0,0-15,14.93l-.32,68v142a14.92,14.92,0,0,0,.32,3.09v9.26H195.55c-.2,0-.38,0-.58,0s-.38,0-.58,0H99.47v-9.26a14.92,14.92,0,0,0,.32-3.09V183.66l-.32-67.94a15,15,0,0,0-15-14.93h0a15,15,0,0,0-15,15V310.73H34.69C33.15,288.91,30.39,244,30,197.37c-.79-104,10.84-132.72,16-140.29l92.13-24.39c11.11,17,32.58,27.92,56.82,27.92H195c24.24,0,45.71-11,56.83-27.92L344,57.08C349.06,64.65,360.68,93.34,359.91,197.21Z"/></svg>