<svg xmlns="http://www.w3.org/2000/svg" viewBox="0 0 345 507"><defs><style>.a{fill:#4d4d4d;}</style></defs><title>trashbagNG</title><path class="a" d="M172.5,457A12.5,12.5,0,0,0,185,444.5v-224a12.5,12.5,0,0,0-25,0v224A12.5,12.5,0,0,0,172.5,457Z"/><path class="a" d="M237.5,457A12.5,12.5,0,0,0,250,444.5v-175a12.5,12.5,0,0,0-25,0v175A12.5,12.5,0,0,0,237.5,457Z"/><path class="a" d="M107.5,457A12.5,12.5,0,0,0,120,444.5v-175a12.5,12.5,0,0,0-25,0v175A12.5,12.5,0,0,0,107.5,457Z"/><path class="a" d="M341.14,107A15,15,0,0,0,330,102H15A15,15,0,0,0,.08,118.55l39.07,375A15,15,0,0,0,54.07,507H290.93a15,15,0,0,0,14.92-13.44l39.07-375A15,15,0,0,0,341.14,107ZM277.41,477H67.59L31.64,132H313.36Z"/><path class="a" d="M15,92H329a15,15,0,0,0,0-30H233c0-.33.05-.66.05-1a61,61,0,0,0-122,0c0,.34,0,.67,0,1H15a15,15,0,0,0,0,30ZM141,61a31,31,0,0,1,62,0c0,.34,0,.67.05,1H141C141,61.67,141,61.34,141,61Z"/></svg>