<?xml version="1.0" encoding="utf-8"?>
<!-- Generator: Adobe Illustrator 22.1.0, SVG Export Plug-In . SVG Version: 6.00 Build 0)  -->
<svg version="1.1" id="Layer_1" xmlns="http://www.w3.org/2000/svg" xmlns:xlink="http://www.w3.org/1999/xlink" x="0px" y="0px"
	 viewBox="0 0 345 507" style="enable-background:new 0 0 345 507;" xml:space="preserve">
<style type="text/css">
	.st0{fill:#575757;}
</style>
<title>trashbagNG</title>
<path class="st0" d="M172.5,457c6.9,0,12.5-5.6,12.5-12.5v-224c0-6.9-5.6-12.5-12.5-12.5s-12.5,5.6-12.5,12.5v224
	C160,451.4,165.6,457,172.5,457z"/>
<path class="st0" d="M237.5,457c6.9,0,12.5-5.6,12.5-12.5v-175c0-6.9-5.6-12.5-12.5-12.5s-12.5,5.6-12.5,12.5v175
	C225,451.4,230.6,457,237.5,457z"/>
<path class="st0" d="M107.5,457c6.9,0,12.5-5.6,12.5-12.5v-175c0-6.9-5.6-12.5-12.5-12.5S95,262.6,95,269.5v175
	C95,451.4,100.6,457,107.5,457z"/>
<path class="st0" d="M341.1,107c-2.8-3.2-6.9-5-11.1-5H15c-8.3,0-15,6.7-15,15c0,0.5,0,1,0.1,1.6l39.1,375
	c0.8,7.6,7.2,13.5,14.9,13.5H291c7.7,0,14.1-5.8,14.9-13.4l39.1-375C345.3,114.3,344,110.1,341.1,107z M277.4,477H67.6l-36-345
	h281.7L277.4,477z"/>
<path class="st0" d="M15,92h314c8.3,0,15-6.7,15-15s-6.7-15-15-15h-96c0-0.3,0.1-0.7,0.1-1c0-33.7-27.3-61-61-61s-61,27.3-61,61
	c0,0.3,0,0.7,0,1H15C6.7,62,0,68.7,0,77S6.7,92,15,92z M141,61c0-17.1,13.9-31,31-31s31,13.9,31,31c0,0.3,0,0.7,0.1,1H141
	C141,61.7,141,61.3,141,61z"/>
</svg>
