<svg xmlns="http://www.w3.org/2000/svg" xmlns:xlink="http://www.w3.org/1999/xlink" viewBox="0 0 387.85 368.08"><defs><style>.a{fill:url(#a);}.b{fill:#575757;}</style><linearGradient id="a" x1="15" y1="201.58" x2="335.72" y2="201.58" gradientUnits="userSpaceOnUse"><stop offset="0" stop-color="#4fc1e9"/><stop offset="1" stop-color="#7adca0"/></linearGradient></defs><title>Asset 30</title><path class="a" d="M218.87,50.08c-4.41,15.69-22.24,27.43-43.58,27.43s-39.14-11.72-43.57-27.39L15,81.61l19,70.26,37.93-10.24V353.08H274.3V140.41l42.46,11.46,19-70.26Z"/><path class="b" d="M304.32,368.08H78.48a15,15,0,0,1-15-15V136.74l-23.42,6.32a15,15,0,0,1-18.39-10.58L.52,54.09A15,15,0,0,1,11.1,35.7L141.33.56A15,15,0,0,1,159.67,11c3.17,11.19,17.86,19.64,34.18,19.64s31-8.46,34.18-19.67A15,15,0,0,1,246.38.52L376.76,35.7a15,15,0,0,1,10.57,18.39l-21.15,78.39a15,15,0,0,1-18.39,10.58l-28.47-7.69V353.08A15,15,0,0,1,304.32,368.08Zm-210.84-30H289.32V115.79a15,15,0,0,1,18.91-14.48l32.89,8.87,13.34-49.42-103.82-28c-11.12,16.92-32.57,27.87-56.79,27.87s-45.64-10.94-56.77-27.83l-103.69,28,13.34,49.42,27.84-7.51a15,15,0,0,1,18.91,14.48Z"/></svg>