<svg xmlns="http://www.w3.org/2000/svg" xmlns:xlink="http://www.w3.org/1999/xlink" viewBox="0 0 418.01 277"><defs><style>.a{fill:url(#a);}.b{fill:#4d4d4d;}</style><linearGradient id="a" x1="24.01" y1="188" x2="330.35" y2="188" gradientUnits="userSpaceOnUse"><stop offset="0" stop-color="#4fc1e9"/><stop offset="1" stop-color="#7adca0"/></linearGradient></defs><title>Asset 28</title><path class="a" d="M330.27,127.91c0-.21.05-.42.06-.64s0-.37,0-.55,0-.4,0-.61,0-.39,0-.58,0-.38-.07-.57-.06-.4-.1-.6-.07-.36-.11-.53-.11-.43-.18-.64l-.15-.48c-.08-.22-.16-.44-.25-.65s-.07-.2-.11-.29l-.09-.17c-.09-.2-.19-.39-.3-.59s-.17-.32-.26-.48l-.3-.48c-.12-.17-.23-.35-.36-.51s-.2-.26-.3-.39-.28-.35-.43-.52l-.34-.35-.46-.46c-.14-.13-.29-.24-.43-.36s-.29-.25-.45-.37-.35-.24-.52-.36l-.42-.28c-.19-.12-.39-.22-.58-.33l-.44-.23-.57-.25-.52-.21-.53-.18c-.21-.06-.42-.13-.63-.18l-.18-.06-.32-.06-.66-.12-.54-.07-.61-.05a5.82,5.82,0,0,0-.59,0h-.56c-.21,0-.42,0-.63,0a4.6,4.6,0,0,0-.52.06c-.22,0-.43.06-.65.11l-.49.1-.67.18-.46.15-.66.26-.29.11c-26.37,11.72-56.14,16.34-86.12,13.37-14.88-1.89-28.53-7.14-43-12.7-8.23-3.17-16.75-6.45-25.65-9.12a175.28,175.28,0,0,0-128,8.54l-.25.14a6.88,6.88,0,0,0-.66.35l-.41.25c-.19.12-.38.24-.56.38a4.59,4.59,0,0,0-.44.33c-.15.12-.31.24-.45.37l-.46.42-.36.36-.44.49-.31.38-.39.53-.28.42-.31.53c-.1.16-.18.32-.27.49l-.24.51c-.08.18-.16.37-.23.56l-.18.49c-.07.2-.13.4-.19.61l-.12.49c0,.21-.1.42-.13.63s-.06.35-.08.52-.05.4-.07.6l0,.6c0,.18,0,.36,0,.54s0,.46,0,.69,0,.31,0,.46.06.5.11.75a2.7,2.7,0,0,0,0,.28L52.09,267.42A11.93,11.93,0,0,0,63.79,277H285a11.93,11.93,0,0,0,11.6-9.13L330,129.41c0-.1,0-.21.06-.31s.09-.45.13-.67S330.26,128.08,330.27,127.91Z"/><path class="b" d="M406.54.43a15,15,0,0,0-18.11,11L372.51,77C341,89.73,306,94.59,270.68,91.1c-18.71-2.37-35.85-9-54-16-10.35-4-21.05-8.1-32.24-11.46A219.6,219.6,0,0,0,40.88,67.22L29.71,12A15,15,0,0,0,.3,18l50,247A15,15,0,0,0,65,277H343a15,15,0,0,0,14.58-11.45l60-247A15,15,0,0,0,406.54.43ZM331.21,247H77.27L46.91,97a190,190,0,0,1,128.52-4.75l.26.08c10.15,3,19.89,6.8,30.21,10.77,19.09,7.35,38.83,15,61.24,17.75l.37,0c8.47.85,16.94,1.27,25.36,1.27a245.67,245.67,0,0,0,71.2-10.46Z"/></svg>