<svg xmlns="http://www.w3.org/2000/svg" xmlns:xlink="http://www.w3.org/1999/xlink" viewBox="0 0 530 680"><defs><style>.a{fill:url(#a);}.b{fill:url(#b);}.c{fill:#4d4d4d;}</style><linearGradient id="a" x1="486.29" y1="110.61" x2="-0.29" y2="597.19" gradientUnits="userSpaceOnUse"><stop offset="0" stop-color="#4fc1e9"/><stop offset="1" stop-color="#7adca0"/></linearGradient><linearGradient id="b" x1="546.04" y1="170.83" x2="178.96" y2="537.9" xlink:href="#a"/></defs><title>wardrobe</title><rect class="a" x="14.5" y="92.3" width="457" height="523.2" rx="6" ry="6"/><rect class="b" x="253.5" y="92.77" width="218" height="523.2" rx="6" ry="6"/><path d="M15,458a14.66,14.66,0,0,1-1.48-.07c-.48-.05-1-.13-1.45-.22s-1-.22-1.42-.36-.94-.31-1.39-.5-.89-.4-1.32-.63a14.6,14.6,0,0,1-1.27-.75c-.4-.27-.8-.57-1.18-.87s-.75-.65-1.1-1A15.09,15.09,0,0,1,0,443a14.66,14.66,0,0,1,.07-1.48,14.51,14.51,0,0,1,.22-1.45c.1-.48.22-1,.36-1.43s.31-.93.5-1.38.4-.89.63-1.32a14.6,14.6,0,0,1,.75-1.27c.27-.4.56-.8.87-1.18s.65-.75,1-1.1.72-.68,1.1-1a14.34,14.34,0,0,1,1.18-.87q.62-.4,1.26-.75c.43-.23.88-.44,1.33-.63s.92-.35,1.38-.5.95-.26,1.43-.36,1-.17,1.45-.22a15.13,15.13,0,0,1,12.09,4.32c.34.35.68.72,1,1.1s.6.78.87,1.18a16.67,16.67,0,0,1,1.38,2.59c.19.45.35.92.5,1.38s.26.95.36,1.43.17,1,.22,1.45A14.66,14.66,0,0,1,30,443a14.46,14.46,0,0,1-.07,1.47c-.05.49-.13,1-.22,1.46s-.22,1-.36,1.42-.31.94-.5,1.39-.4.89-.63,1.32a14.6,14.6,0,0,1-.75,1.27c-.27.4-.56.8-.87,1.18s-.65.75-1,1.09-.72.68-1.1,1-.78.6-1.19.87a14.43,14.43,0,0,1-1.26.75q-.64.34-1.32.63c-.46.19-.92.35-1.39.5s-.94.26-1.42.36-1,.17-1.45.22A14.66,14.66,0,0,1,15,458Z"/><path class="c" d="M214.5,348A12.5,12.5,0,0,1,202,335.5v-40a12.5,12.5,0,0,1,25,0v40A12.5,12.5,0,0,1,214.5,348Z"/><path class="c" d="M316,348.5A12.5,12.5,0,0,1,303.5,336V296a12.5,12.5,0,0,1,25,0v40A12.5,12.5,0,0,1,316,348.5Z"/><path class="c" d="M515,0H15A15,15,0,0,0,0,15V397a15,15,0,0,0,30,0V30H250V600H30V486a15,15,0,0,0-30,0V615a15.33,15.33,0,0,0,.19,2.27A14.91,14.91,0,0,0,0,619.5v46A14.54,14.54,0,0,0,14.5,680h1A14.54,14.54,0,0,0,30,665.5V630H515a15,15,0,0,0,15-15V15A15,15,0,0,0,515,0ZM500,600H280V30H500Z"/><rect class="c" x="500" y="650" width="30" height="30" rx="14.5" ry="14.5"/><rect class="c" y="428" width="30" height="30" rx="14.5" ry="14.5"/></svg>